<svg width="135.22" height="28.154" viewBox="0 0 135.22 28.154" xmlns="http://www.w3.org/2000/svg"><g id="svgGroup" stroke-linecap="round" fill-rule="evenodd" font-size="9pt" stroke="#000" stroke-width="0.25mm" fill="#000" style="stroke:#000;stroke-width:0.25mm;fill:#000"><path d="M 106.318 13.564 L 106.318 22.485 L 103.433 22.485 L 103.433 12.759 A 205.654 205.654 0 0 0 103.432 12.313 Q 103.431 11.878 103.428 11.542 A 65.3 65.3 0 0 0 103.425 11.257 A 14.855 14.855 0 0 0 103.367 10.122 A 16.532 16.532 0 0 0 103.341 9.854 Q 103.311 9.571 103.278 9.379 A 3.383 3.383 0 0 0 103.257 9.265 A 2.002 2.002 0 0 0 103.119 8.846 A 2.379 2.379 0 0 0 103.044 8.694 Q 102.902 8.43 102.754 8.323 A 0.487 0.487 0 0 0 102.729 8.306 A 1.159 1.159 0 0 0 102.608 8.239 Q 102.467 8.172 102.261 8.108 A 2.472 2.472 0 0 0 101.646 7.998 A 9.863 9.863 0 0 0 101.479 7.992 Q 101.294 7.986 101.054 7.984 A 31.066 31.066 0 0 0 100.825 7.983 Q 99.973 7.983 99.314 8.056 A 8.236 8.236 0 0 0 98.928 8.108 Q 98.145 8.232 97.646 8.452 A 1.984 1.984 0 0 0 97.205 8.716 A 1.625 1.625 0 0 0 96.877 9.067 Q 96.606 9.463 96.504 9.924 A 3.795 3.795 0 0 0 96.441 10.3 Q 96.401 10.638 96.401 11.06 A 10.922 10.922 0 0 0 96.404 11.285 Q 96.411 11.635 96.439 12.239 A 94.225 94.225 0 0 0 96.445 12.385 Q 96.489 13.33 96.489 13.916 L 96.489 22.485 L 93.604 22.485 L 93.604 6.416 L 96.24 6.416 L 96.519 8.218 A 2.624 2.624 0 0 1 97.855 6.651 A 3.733 3.733 0 0 1 98.203 6.489 A 6.863 6.863 0 0 1 99.628 6.094 Q 100.297 5.981 101.057 5.965 A 11.958 11.958 0 0 1 101.309 5.962 Q 102.069 5.962 102.676 6.044 A 7.098 7.098 0 0 1 102.817 6.064 A 4.818 4.818 0 0 1 103.476 6.213 A 3.767 3.767 0 0 1 103.989 6.409 A 4.691 4.691 0 0 1 104.515 6.697 A 3.698 3.698 0 0 1 104.875 6.958 A 2.284 2.284 0 0 1 105.297 7.42 A 2.944 2.944 0 0 1 105.505 7.771 A 6.44 6.44 0 0 1 105.923 8.804 A 5.198 5.198 0 0 1 106.033 9.236 Q 106.084 9.475 106.125 9.752 A 11.035 11.035 0 0 1 106.172 10.122 A 21.543 21.543 0 0 1 106.289 11.697 Q 106.318 12.48 106.318 13.564 Z M 82.603 0.659 L 82.896 2.915 L 73.887 2.915 L 73.887 10.034 L 81.563 10.034 L 81.563 12.407 L 73.887 12.407 L 73.887 22.485 L 70.913 22.485 L 70.913 0.659 L 82.603 0.659 Z M 30.82 14.429 L 22.837 14.429 A 122.177 122.177 0 0 0 22.874 16.655 A 159.351 159.351 0 0 0 22.954 19.087 A 2.011 2.011 0 0 0 23.055 19.599 A 1.258 1.258 0 0 0 23.796 20.383 A 2.736 2.736 0 0 0 24.263 20.519 Q 25.031 20.681 26.475 20.697 A 29.279 29.279 0 0 0 26.792 20.698 A 17.979 17.979 0 0 0 27.385 20.689 Q 27.852 20.674 28.228 20.632 Q 28.656 20.585 28.968 20.486 A 2.14 2.14 0 0 0 29.202 20.398 A 5.301 5.301 0 0 0 29.419 20.294 Q 29.53 20.238 29.623 20.183 A 2.167 2.167 0 0 0 29.788 20.076 Q 29.98 19.937 30.082 19.654 A 1.434 1.434 0 0 0 30.103 19.592 Q 30.205 19.263 30.234 19.036 A 4.987 4.987 0 0 0 30.249 18.907 Q 30.271 18.693 30.293 18.347 Q 30.322 17.886 30.366 17.593 L 32.607 18.003 Q 32.585 18.787 32.511 19.387 A 8.662 8.662 0 0 1 32.461 19.739 A 4.792 4.792 0 0 1 32.293 20.441 A 3.721 3.721 0 0 1 32.065 20.991 A 3.218 3.218 0 0 1 31.792 21.436 A 2.326 2.326 0 0 1 31.406 21.848 Q 31.092 22.108 30.599 22.293 A 4.55 4.55 0 0 1 30.381 22.368 Q 29.736 22.573 28.96 22.639 Q 28.426 22.684 27.719 22.699 A 33.934 33.934 0 0 1 27.041 22.705 A 21.517 21.517 0 0 1 25.873 22.675 Q 25.31 22.644 24.819 22.582 A 11.473 11.473 0 0 1 24.492 22.537 A 15.859 15.859 0 0 1 23.663 22.386 Q 23.273 22.304 22.935 22.209 A 8.263 8.263 0 0 1 22.639 22.119 A 2.927 2.927 0 0 1 21.756 21.664 A 2.687 2.687 0 0 1 21.372 21.306 A 7.714 7.714 0 0 1 20.977 20.822 Q 20.749 20.518 20.588 20.229 A 2.493 2.493 0 0 1 20.417 19.841 Q 20.259 19.39 20.171 18.721 Q 20.039 17.725 20.002 16.912 A 26.894 26.894 0 0 1 19.986 16.466 Q 19.972 15.967 19.968 15.302 A 96.18 96.18 0 0 1 19.966 14.663 A 134.304 134.304 0 0 1 19.969 13.708 Q 19.976 12.781 19.996 12.091 A 36.15 36.15 0 0 1 20.017 11.514 A 14.417 14.417 0 0 1 20.303 9.25 Q 20.537 8.115 20.933 7.603 Q 21.328 7.09 22.104 6.65 A 4.345 4.345 0 0 1 23.125 6.24 A 5.72 5.72 0 0 1 23.936 6.086 Q 24.644 6.003 25.611 5.975 A 35.516 35.516 0 0 1 26.616 5.962 A 32.961 32.961 0 0 1 27.419 5.971 Q 27.814 5.981 28.163 6.001 A 17.004 17.004 0 0 1 28.564 6.028 A 7.985 7.985 0 0 1 29.492 6.155 A 6.514 6.514 0 0 1 30.073 6.299 A 6.944 6.944 0 0 1 30.556 6.461 Q 30.789 6.55 30.986 6.647 A 3.504 3.504 0 0 1 31.208 6.768 A 2.246 2.246 0 0 1 31.715 7.181 A 2.972 2.972 0 0 1 32 7.544 A 4.448 4.448 0 0 1 32.478 8.467 A 4.102 4.102 0 0 1 32.527 8.606 A 5.009 5.009 0 0 1 32.645 9.026 Q 32.698 9.247 32.743 9.506 A 12.422 12.422 0 0 1 32.827 10.063 A 19.042 19.042 0 0 1 32.974 11.902 Q 33.002 12.81 33.003 14.157 A 129.978 129.978 0 0 1 33.003 14.224 Q 31.358 14.388 30.88 14.424 A 8.872 8.872 0 0 1 30.82 14.429 Z M 47.329 14.429 L 39.346 14.429 A 122.177 122.177 0 0 0 39.382 16.655 A 159.351 159.351 0 0 0 39.463 19.087 A 2.011 2.011 0 0 0 39.563 19.599 A 1.258 1.258 0 0 0 40.305 20.383 A 2.736 2.736 0 0 0 40.772 20.519 Q 41.54 20.681 42.984 20.697 A 29.279 29.279 0 0 0 43.301 20.698 A 17.979 17.979 0 0 0 43.894 20.689 Q 44.361 20.674 44.736 20.632 Q 45.164 20.585 45.477 20.486 A 2.14 2.14 0 0 0 45.71 20.398 A 5.301 5.301 0 0 0 45.928 20.294 Q 46.039 20.238 46.131 20.183 A 2.167 2.167 0 0 0 46.296 20.076 Q 46.489 19.937 46.591 19.654 A 1.434 1.434 0 0 0 46.611 19.592 Q 46.714 19.263 46.743 19.036 A 4.987 4.987 0 0 0 46.758 18.907 Q 46.78 18.693 46.802 18.347 Q 46.831 17.886 46.875 17.593 L 49.116 18.003 Q 49.094 18.787 49.02 19.387 A 8.662 8.662 0 0 1 48.97 19.739 A 4.792 4.792 0 0 1 48.801 20.441 A 3.721 3.721 0 0 1 48.574 20.991 A 3.218 3.218 0 0 1 48.301 21.436 A 2.326 2.326 0 0 1 47.915 21.848 Q 47.601 22.108 47.108 22.293 A 4.55 4.55 0 0 1 46.89 22.368 Q 46.245 22.573 45.469 22.639 Q 44.935 22.684 44.228 22.699 A 33.934 33.934 0 0 1 43.55 22.705 A 21.517 21.517 0 0 1 42.382 22.675 Q 41.819 22.644 41.327 22.582 A 11.473 11.473 0 0 1 41.001 22.537 A 15.859 15.859 0 0 1 40.172 22.386 Q 39.782 22.304 39.444 22.209 A 8.263 8.263 0 0 1 39.148 22.119 A 2.927 2.927 0 0 1 38.265 21.664 A 2.687 2.687 0 0 1 37.881 21.306 A 7.714 7.714 0 0 1 37.486 20.822 Q 37.258 20.518 37.097 20.229 A 2.493 2.493 0 0 1 36.926 19.841 Q 36.768 19.39 36.68 18.721 Q 36.548 17.725 36.511 16.912 A 26.894 26.894 0 0 1 36.495 16.466 Q 36.481 15.967 36.477 15.302 A 96.18 96.18 0 0 1 36.475 14.663 A 134.304 134.304 0 0 1 36.478 13.708 Q 36.484 12.781 36.505 12.091 A 36.15 36.15 0 0 1 36.526 11.514 A 14.417 14.417 0 0 1 36.812 9.25 Q 37.046 8.115 37.441 7.603 Q 37.837 7.09 38.613 6.65 A 4.345 4.345 0 0 1 39.633 6.24 A 5.72 5.72 0 0 1 40.444 6.086 Q 41.153 6.003 42.119 5.975 A 35.516 35.516 0 0 1 43.125 5.962 A 32.961 32.961 0 0 1 43.928 5.971 Q 44.323 5.981 44.672 6.001 A 17.004 17.004 0 0 1 45.073 6.028 A 7.985 7.985 0 0 1 46.001 6.155 A 6.514 6.514 0 0 1 46.582 6.299 A 6.944 6.944 0 0 1 47.064 6.461 Q 47.298 6.55 47.495 6.647 A 3.504 3.504 0 0 1 47.717 6.768 A 2.246 2.246 0 0 1 48.224 7.181 A 2.972 2.972 0 0 1 48.508 7.544 A 4.448 4.448 0 0 1 48.987 8.467 A 4.102 4.102 0 0 1 49.036 8.606 A 5.009 5.009 0 0 1 49.154 9.026 Q 49.206 9.247 49.252 9.506 A 12.422 12.422 0 0 1 49.336 10.063 A 19.042 19.042 0 0 1 49.482 11.902 Q 49.511 12.81 49.512 14.157 A 129.978 129.978 0 0 1 49.512 14.224 Q 47.867 14.388 47.389 14.424 A 8.872 8.872 0 0 1 47.329 14.429 Z M 123.53 0 L 123.53 22.485 L 120.894 22.485 L 120.615 20.464 A 3.153 3.153 0 0 1 118.813 22.229 Q 118.183 22.495 117.361 22.612 A 10.061 10.061 0 0 1 115.942 22.705 A 13.335 13.335 0 0 1 115.041 22.676 Q 114.618 22.647 114.24 22.59 A 8.14 8.14 0 0 1 114.133 22.573 A 4.997 4.997 0 0 1 113.433 22.408 A 3.677 3.677 0 0 1 112.756 22.119 Q 112.182 21.799 111.774 21.458 A 4.747 4.747 0 0 1 111.768 21.453 A 2.059 2.059 0 0 1 111.403 21.047 Q 111.265 20.848 111.149 20.6 A 3.825 3.825 0 0 1 111.086 20.457 A 13.482 13.482 0 0 1 110.858 19.871 Q 110.758 19.594 110.683 19.342 A 7.919 7.919 0 0 1 110.662 19.27 Q 110.523 18.787 110.449 17.963 A 15.242 15.242 0 0 1 110.435 17.783 A 39.412 39.412 0 0 1 110.388 17.103 Q 110.368 16.767 110.357 16.467 A 21.191 21.191 0 0 1 110.347 16.121 A 51.927 51.927 0 0 1 110.34 15.734 Q 110.335 15.302 110.333 14.736 A 173.688 173.688 0 0 1 110.332 14.194 A 65.683 65.683 0 0 1 110.337 13.35 Q 110.341 13.017 110.349 12.715 A 35.249 35.249 0 0 1 110.369 12.144 A 19.941 19.941 0 0 1 110.515 10.43 A 11.472 11.472 0 0 1 110.608 9.831 Q 110.694 9.363 110.808 9.001 Q 110.991 8.423 111.299 7.881 A 3.137 3.137 0 0 1 111.673 7.352 A 2.552 2.552 0 0 1 112.039 7.009 A 4.253 4.253 0 0 1 112.57 6.666 A 5.619 5.619 0 0 1 113.071 6.423 A 4.663 4.663 0 0 1 113.803 6.184 A 6.15 6.15 0 0 1 114.448 6.064 A 11.345 11.345 0 0 1 115.248 5.989 Q 115.644 5.965 116.08 5.962 A 18.409 18.409 0 0 1 116.206 5.962 Q 118.074 5.962 119.119 6.456 A 3.328 3.328 0 0 1 119.143 6.467 A 2.983 2.983 0 0 1 120.645 8.071 L 120.645 0.234 L 123.53 0 Z M 5.303 22.485 L 0 22.485 L 0 0.659 L 7.559 0.659 A 37.007 37.007 0 0 1 8.863 0.681 Q 9.882 0.717 10.679 0.813 Q 11.953 0.967 12.957 1.384 A 5.672 5.672 0 0 1 13.757 1.79 Q 14.193 2.059 14.516 2.386 A 3.486 3.486 0 0 1 14.561 2.432 Q 15.114 3.012 15.487 3.948 A 7.011 7.011 0 0 1 15.549 4.109 A 8.821 8.821 0 0 1 15.922 5.443 A 11.263 11.263 0 0 1 16.077 6.46 A 21.661 21.661 0 0 1 16.161 7.52 Q 16.189 7.996 16.202 8.53 A 44.198 44.198 0 0 1 16.216 9.653 A 319.887 319.887 0 0 1 16.214 10.612 Q 16.21 11.984 16.194 12.957 Q 16.172 14.253 16.055 15.608 A 49.92 49.92 0 0 1 15.995 16.25 Q 15.926 16.947 15.852 17.458 A 14.313 14.313 0 0 1 15.806 17.754 A 6.566 6.566 0 0 1 15.517 18.859 A 7.887 7.887 0 0 1 15.315 19.373 Q 14.982 20.14 14.662 20.542 A 2.27 2.27 0 0 1 14.612 20.603 A 2.798 2.798 0 0 1 14.318 20.895 Q 14.015 21.159 13.564 21.431 A 5.208 5.208 0 0 1 12.869 21.786 A 3.989 3.989 0 0 1 12.187 22.002 Q 11.544 22.142 10.468 22.282 A 43.432 43.432 0 0 1 10.364 22.295 Q 9.214 22.441 8.108 22.463 A 87.991 87.991 0 0 1 7.518 22.473 Q 6.64 22.485 5.471 22.485 A 256.498 256.498 0 0 1 5.303 22.485 Z M 56.294 20.977 L 56.294 27.935 L 53.408 28.154 L 53.408 6.416 L 56.03 6.416 L 56.309 8.188 A 3.131 3.131 0 0 1 58.077 6.451 Q 58.701 6.184 59.515 6.062 A 10.094 10.094 0 0 1 60.996 5.962 A 15.943 15.943 0 0 1 61.738 5.978 A 11.951 11.951 0 0 1 62.41 6.028 A 5.899 5.899 0 0 1 63.089 6.137 A 4.676 4.676 0 0 1 63.567 6.27 A 8.017 8.017 0 0 1 64.058 6.453 A 5.989 5.989 0 0 1 64.49 6.65 A 2.391 2.391 0 0 1 65.188 7.192 A 2.712 2.712 0 0 1 65.208 7.214 A 5.303 5.303 0 0 1 65.588 7.7 A 4.492 4.492 0 0 1 65.742 7.939 A 2.822 2.822 0 0 1 65.916 8.284 Q 65.992 8.462 66.058 8.672 A 5.45 5.45 0 0 1 66.116 8.87 A 12.421 12.421 0 0 1 66.34 9.84 A 11.357 11.357 0 0 1 66.365 9.976 A 8.927 8.927 0 0 1 66.43 10.416 Q 66.479 10.811 66.511 11.301 A 34.52 34.52 0 0 1 66.568 12.444 A 30.613 30.613 0 0 1 66.577 12.81 A 63.468 63.468 0 0 1 66.586 13.396 Q 66.589 13.658 66.59 13.949 A 124.675 124.675 0 0 1 66.592 14.561 Q 66.592 15.487 66.568 16.22 A 29.137 29.137 0 0 1 66.541 16.846 Q 66.489 17.783 66.35 18.706 Q 66.211 19.629 65.94 20.215 Q 65.669 20.801 65.237 21.321 A 2.868 2.868 0 0 1 64.175 22.119 Q 63.565 22.389 62.748 22.542 A 9.128 9.128 0 0 1 62.695 22.551 A 8.926 8.926 0 0 1 61.899 22.656 Q 61.352 22.705 60.718 22.705 A 13.202 13.202 0 0 1 59.283 22.634 Q 56.738 22.354 56.294 20.977 Z M 13.271 13.403 L 13.271 9.697 Q 13.271 8.456 13.265 7.855 A 48.912 48.912 0 0 0 13.264 7.756 Q 13.259 7.353 13.214 6.811 A 24.517 24.517 0 0 0 13.162 6.27 A 9.609 9.609 0 0 0 13.11 5.864 Q 13.026 5.301 12.901 5.052 A 0.857 0.857 0 0 0 12.898 5.046 A 4.005 4.005 0 0 0 12.773 4.823 Q 12.637 4.594 12.432 4.302 A 13.703 13.703 0 0 0 12.363 4.204 A 2.04 2.04 0 0 0 12.065 3.866 A 1.411 1.411 0 0 0 11.506 3.552 A 48.283 48.283 0 0 0 11.242 3.478 Q 10.876 3.377 10.382 3.245 A 154.676 154.676 0 0 0 10.217 3.201 A 7.235 7.235 0 0 0 9.261 3.017 A 9.4 9.4 0 0 0 8.437 2.952 Q 7.456 2.915 6.05 2.915 L 2.974 2.915 L 2.974 20.244 L 6.489 20.244 A 121.719 121.719 0 0 0 7.084 20.243 Q 7.662 20.24 8.092 20.231 A 32.751 32.751 0 0 0 8.452 20.222 A 14.828 14.828 0 0 0 9.28 20.172 A 18.877 18.877 0 0 0 9.976 20.098 Q 10.658 20.012 11.041 19.882 A 1.91 1.91 0 0 0 11.184 19.827 A 2.959 2.959 0 0 0 11.523 19.651 Q 11.689 19.552 11.864 19.423 A 5.698 5.698 0 0 0 12.026 19.299 A 2.226 2.226 0 0 0 12.391 18.94 A 1.726 1.726 0 0 0 12.656 18.479 Q 12.832 18.018 13.008 17.263 Q 13.184 16.509 13.228 15.601 Q 13.258 14.976 13.267 14.172 A 65.592 65.592 0 0 0 13.271 13.403 Z M 135.22 6.05 L 135.103 8.496 A 8.666 8.666 0 0 0 134.43 8.433 A 7.24 7.24 0 0 0 134.048 8.423 A 8.786 8.786 0 0 0 133.436 8.443 Q 132.806 8.487 132.363 8.628 Q 131.719 8.833 131.389 9.331 A 2.883 2.883 0 0 0 130.983 10.3 A 3.379 3.379 0 0 0 130.95 10.466 A 6.103 6.103 0 0 0 130.892 10.907 Q 130.84 11.438 130.84 12.173 A 19.5 19.5 0 0 0 130.843 12.508 Q 130.85 12.889 130.87 13.419 A 84.716 84.716 0 0 0 130.891 13.931 A 97.39 97.39 0 0 1 130.914 14.468 Q 130.942 15.212 130.942 15.586 L 130.942 22.485 L 128.057 22.485 L 128.057 6.416 L 130.679 6.416 L 130.972 8.218 A 3.62 3.62 0 0 1 131.79 7.018 A 3.465 3.465 0 0 1 132.349 6.584 A 3.733 3.733 0 0 1 133.718 6.074 A 4.998 4.998 0 0 1 134.561 6.006 A 5.094 5.094 0 0 1 135.22 6.05 Z M 88.975 6.416 L 88.975 22.485 L 86.089 22.485 L 86.089 6.416 L 88.975 6.416 Z M 120.645 18.75 L 120.645 10.21 Q 120.645 9.447 120.361 8.971 A 1.455 1.455 0 0 0 119.854 8.459 A 2.288 2.288 0 0 0 119.335 8.24 Q 118.762 8.068 117.851 8.011 A 15.742 15.742 0 0 0 116.88 7.983 Q 115.181 7.983 114.36 8.232 A 1.113 1.113 0 0 0 113.751 8.701 Q 113.63 8.882 113.544 9.126 A 2.949 2.949 0 0 0 113.452 9.441 A 7.228 7.228 0 0 0 113.329 10.136 Q 113.225 10.92 113.218 11.99 A 23.959 23.959 0 0 0 113.218 12.144 A 185.165 185.165 0 0 0 113.223 13.505 Q 113.235 15.036 113.269 17.093 A 691.295 691.295 0 0 0 113.306 19.072 A 2.133 2.133 0 0 0 113.401 19.578 A 1.266 1.266 0 0 0 114.089 20.369 A 2.319 2.319 0 0 0 114.53 20.513 Q 115.32 20.698 116.88 20.698 A 16.202 16.202 0 0 0 117.828 20.673 Q 118.728 20.62 119.297 20.457 A 2.547 2.547 0 0 0 119.744 20.288 A 1.544 1.544 0 0 0 120.538 19.328 A 2.591 2.591 0 0 0 120.645 18.75 Z M 63.706 13.608 A 279.87 279.87 0 0 0 63.692 12.416 Q 63.664 10.456 63.618 9.712 Q 63.579 9.032 63.254 8.649 A 1.252 1.252 0 0 0 62.849 8.335 Q 62.19 8.009 60.34 7.985 A 23.209 23.209 0 0 0 60.044 7.983 A 12.958 12.958 0 0 0 58.975 8.024 Q 57.229 8.169 56.646 8.833 A 1.33 1.33 0 0 0 56.486 9.206 Q 56.296 9.86 56.25 11.323 A 32.463 32.463 0 0 0 56.235 12.334 A 44 44 0 0 0 56.237 12.663 Q 56.24 13.038 56.248 13.566 A 201.295 201.295 0 0 0 56.257 14.077 Q 56.278 15.143 56.279 15.662 A 27.636 27.636 0 0 1 56.279 15.747 Q 56.279 16.26 56.243 17.065 Q 56.213 17.728 56.207 18.054 A 7.704 7.704 0 0 0 56.206 18.179 A 4.564 4.564 0 0 0 56.234 18.7 Q 56.265 18.966 56.329 19.187 A 1.914 1.914 0 0 0 56.492 19.585 Q 56.777 20.098 57.634 20.398 A 4.324 4.324 0 0 0 58.272 20.563 Q 58.946 20.688 59.89 20.697 A 15.525 15.525 0 0 0 60.044 20.698 A 20.492 20.492 0 0 0 60.97 20.679 Q 62.274 20.62 62.858 20.378 A 1.643 1.643 0 0 0 62.93 20.347 A 0.812 0.812 0 0 0 63.277 19.967 Q 63.625 19.301 63.709 17.595 A 24.379 24.379 0 0 0 63.735 16.406 A 52.497 52.497 0 0 0 63.734 16.11 Q 63.733 15.777 63.727 15.336 A 186.182 186.182 0 0 0 63.721 14.912 Q 63.709 14.131 63.707 13.754 A 25.777 25.777 0 0 1 63.706 13.608 Z M 22.852 12.891 L 30.117 12.891 A 66.375 66.375 0 0 0 30.066 11.096 A 50.243 50.243 0 0 0 29.971 9.463 A 1.797 1.797 0 0 0 29.879 8.987 A 1.168 1.168 0 0 0 29.202 8.269 A 2.537 2.537 0 0 0 28.773 8.138 Q 28.053 7.976 26.73 7.969 A 23.032 23.032 0 0 0 26.602 7.969 A 30.197 30.197 0 0 0 25.87 7.977 Q 24.402 8.013 23.95 8.203 A 1.001 1.001 0 0 0 23.518 8.459 A 1.032 1.032 0 0 0 23.37 8.649 Q 23.284 8.79 23.218 8.979 A 6.611 6.611 0 0 0 23.113 9.305 A 5.105 5.105 0 0 0 23.035 9.609 A 3.16 3.16 0 0 0 22.996 9.815 Q 22.963 10.03 22.939 10.324 A 11.301 11.301 0 0 0 22.932 10.422 A 83.669 83.669 0 0 0 22.915 10.668 Q 22.892 11.014 22.881 11.228 A 10.395 10.395 0 0 0 22.874 11.39 Q 22.864 11.657 22.859 12.089 A 77.583 77.583 0 0 0 22.859 12.1 A 210.771 210.771 0 0 0 22.856 12.353 Q 22.852 12.734 22.852 12.891 Z M 39.36 12.891 L 46.626 12.891 A 66.375 66.375 0 0 0 46.575 11.096 A 50.243 50.243 0 0 0 46.479 9.463 A 1.797 1.797 0 0 0 46.388 8.987 A 1.168 1.168 0 0 0 45.71 8.269 A 2.537 2.537 0 0 0 45.282 8.138 Q 44.562 7.976 43.238 7.969 A 23.032 23.032 0 0 0 43.11 7.969 A 30.197 30.197 0 0 0 42.379 7.977 Q 40.911 8.013 40.459 8.203 A 1.001 1.001 0 0 0 40.027 8.459 A 1.032 1.032 0 0 0 39.879 8.649 Q 39.792 8.79 39.727 8.979 A 6.611 6.611 0 0 0 39.622 9.305 A 5.105 5.105 0 0 0 39.543 9.609 A 3.16 3.16 0 0 0 39.505 9.815 Q 39.472 10.03 39.448 10.324 A 11.301 11.301 0 0 0 39.441 10.422 A 83.669 83.669 0 0 0 39.424 10.668 Q 39.401 11.014 39.39 11.228 A 10.395 10.395 0 0 0 39.383 11.39 Q 39.373 11.657 39.368 12.089 A 77.583 77.583 0 0 0 39.368 12.1 A 210.771 210.771 0 0 0 39.365 12.353 Q 39.36 12.734 39.36 12.891 Z M 86.089 0.205 L 88.975 0.205 L 88.975 2.739 L 86.089 2.739 L 86.089 0.205 Z" vector-effect="non-scaling-stroke"/></g></svg>